<?xml version="1.0" encoding="UTF-8"?>
<svg width="282px" height="275px" viewBox="0 0 282 275" version="1.1" xmlns="http://www.w3.org/2000/svg" xmlns:xlink="http://www.w3.org/1999/xlink">
    <!-- Generator: Sketch 52.6 (67491) - http://www.bohemiancoding.com/sketch -->
    <title>切片</title>
    <desc>Created with Sketch.</desc>
    <defs>
        <rect id="path-1" x="0" y="0" width="33.4090909" height="10.7712766"></rect>
        <linearGradient x1="50%" y1="0%" x2="50%" y2="100%" id="linearGradient-3">
            <stop stop-color="#FFC1B5" offset="0%"></stop>
            <stop stop-color="#FF9D8A" offset="100%"></stop>
        </linearGradient>
        <path d="M0.825634516,7.38636364 C0.369649164,7.38636364 9.1663845e-17,7.03022651 0,6.59090909 C0,6.44182523 0.0434857117,6.29574189 0.125497847,6.16931902 L2.9790966,1.77045623 C3.28084678,1.30530406 3.81002883,1.02272727 4.37936993,1.02272727 L30.6205196,1.02272727 C31.1898607,1.02272727 31.7190427,1.30530406 32.0207929,1.77045623 L34.8743916,6.16931902 C35.1160634,6.54185945 34.9985152,7.03261543 34.6118404,7.2654532 C34.480621,7.34446749 34.3289952,7.38636364 34.174255,7.38636364" id="path-4"></path>
        <path d="M0,1.19318182 L35,1.19318182 L35,15.4545455 C35,18.0904499 32.8631772,20.2272727 30.2272727,20.2272727 L4.77272727,20.2272727 C2.13682278,20.2272727 3.22805199e-16,18.0904499 0,15.4545455 L0,1.19318182 Z" id="path-6"></path>
        <linearGradient x1="-1.11022302e-14%" y1="50%" x2="100%" y2="50%" id="linearGradient-8">
            <stop stop-color="#FFC1B5" offset="0%"></stop>
            <stop stop-color="#FF9D8A" offset="100%"></stop>
        </linearGradient>
        <linearGradient x1="100%" y1="50%" x2="0%" y2="50%" id="linearGradient-9">
            <stop stop-color="#FFC1B5" offset="0%"></stop>
            <stop stop-color="#FF9D8A" offset="100%"></stop>
        </linearGradient>
        <linearGradient x1="3.64008693%" y1="56.7440557%" x2="92.9802239%" y2="56.7440557%" id="linearGradient-10">
            <stop stop-color="#E1E1E1" offset="0%"></stop>
            <stop stop-color="#CDCDCD" offset="100%"></stop>
        </linearGradient>
        <path d="M0.825634516,6.38636364 C0.369649164,6.38636364 9.1663845e-17,6.03022651 0,5.59090909 C0,5.44182523 0.0434857117,5.29574189 0.125497847,5.16931902 L2.9790966,0.770456232 C3.28084678,0.305304063 3.81002883,0.0227272727 4.37936993,0.0227272727 L30.6205196,0.0227272727 C31.1898607,0.0227272727 31.7190427,0.305304063 32.0207929,0.770456232 L34.8743916,5.16931902 C35.1160634,5.54185945 34.9985152,6.03261543 34.6118404,6.2654532 C34.480621,6.34446749 34.3289952,6.38636364 34.174255,6.38636364" id="path-11"></path>
        <linearGradient x1="50%" y1="0%" x2="50%" y2="100%" id="linearGradient-13">
            <stop stop-color="#E5E5E5" offset="0%"></stop>
            <stop stop-color="#D5D5D5" offset="100%"></stop>
        </linearGradient>
        <path d="M0,0.193181818 L35,0.193181818 L35,14.4545455 C35,17.0904499 32.8631772,19.2272727 30.2272727,19.2272727 L4.77272727,19.2272727 C2.13682278,19.2272727 3.22805199e-16,17.0904499 0,14.4545455 L0,0.193181818 Z" id="path-14"></path>
        <linearGradient x1="96.1753243%" y1="50%" x2="6.03464393%" y2="50%" id="linearGradient-16">
            <stop stop-color="#E4E4E4" offset="0%"></stop>
            <stop stop-color="#CDCDCD" offset="100%"></stop>
        </linearGradient>
        <rect id="path-17" x="0" y="0" width="33.4090909" height="10.7712766"></rect>
    </defs>
    <g id="切片" stroke="none" stroke-width="1" fill="none" fill-rule="evenodd">
        <g id="待付款" opacity="0.696893601" transform="translate(17.000000, 13.000000)">
            <circle id="椭圆形" fill-rule="nonzero" cx="25" cy="25" r="25"></circle>
            <g id="Rectangle" transform="translate(9.090909, 6.250000)">
                <mask id="mask-2" fill="white">
                    <use xlink:href="#path-1"></use>
                </mask>
                <use id="Mask" fill="#D8D8D8" opacity="0" xlink:href="#path-1"></use>
                <path d="M1.59058825,5.19571372 L27.0497269,5.17997846 C29.6856309,5.17834931 31.8237739,7.313851 31.8254031,9.94975499 C31.8254043,9.95171882 31.8254043,9.95368265 31.8254031,9.95564648 L31.8155519,25.9387569 C31.8139287,28.5723604 29.6793789,30.7069139 27.0457754,30.7085416 L1.58663674,30.7242769 C-1.04926724,30.725906 -3.1874103,28.5904043 -3.18903945,25.9545003 C-3.18904066,25.9525365 -3.18904067,25.9505727 -3.18903946,25.9486088 L-3.17918829,9.96549842 C-3.17756507,7.33189491 -1.04301526,5.19734145 1.59058825,5.19571372 Z" fill="#FF9388" mask="url(#mask-2)" transform="translate(14.318182, 17.952128) rotate(-12.000000) translate(-14.318182, -17.952128) "></path>
            </g>
            <rect id="Rectangle" fill="url(#linearGradient-3)" x="7.5" y="13.4308511" width="35" height="25.5319149" rx="4.77272727"></rect>
            <path d="M28.491779,21.4095745 L42.454545,21.4095745 L42.454545,30.9840426 L28.491779,30.9840426 C25.8478627,30.9840426 23.704545,28.8407249 23.704545,26.1968085 L23.704545,26.1968085 C23.704545,23.5528922 25.8478627,21.4095745 28.491779,21.4095745 Z" id="Rectangle-2" fill-opacity="0.866649683" fill="#FFFFFF"></path>
            <ellipse id="Oval-9" fill="#FF9388" cx="28.9772727" cy="26.1968085" rx="1.59090909" ry="1.59574468"></ellipse>
        </g>
        <g id="待收货" opacity="0.699999988" transform="translate(67.000000, 13.000000)">
            <g id="Rectangle-3" transform="translate(7.500000, 11.250000)">
                <mask id="mask-5" fill="white">
                    <use xlink:href="#path-4"></use>
                </mask>
                <use id="Mask" fill="#FF9388" xlink:href="#path-4"></use>
                <path d="M11.4365944,8.18181818 C11.2707815,8.18181818 11.1363636,7.82568105 11.1363636,7.38636364 C11.1363636,7.23727977 11.1521766,7.09119644 11.1819992,6.96477357 L12.2196715,2.56591078 C12.3293988,2.10075861 12.5218287,1.81818182 12.7288618,1.81818182 L22.271098,1.81818182 C22.4781311,1.81818182 22.670561,2.10075861 22.7802883,2.56591078 L23.8179606,6.96477357 C23.9058412,7.33731399 23.8630964,7.82806998 23.7224874,8.06090774 C23.6747713,8.13992203 23.6196346,8.18181818 23.5633654,8.18181818" fill-opacity="0.869225543" fill="#FFFFFF" mask="url(#mask-5)"></path>
            </g>
            <g id="Rectangle-4" transform="translate(7.500000, 17.500000)">
                <mask id="mask-7" fill="white">
                    <use xlink:href="#path-6"></use>
                </mask>
                <use id="Mask" fill="url(#linearGradient-3)" xlink:href="#path-6"></use>
                <path d="M11.1363636,0.738636364 L23.8636364,0.738636364 L23.8636364,7.89772727 C23.8636364,8.33704469 23.5074992,8.69318182 23.0681818,8.69318182 L11.9318182,8.69318182 C11.4925008,8.69318182 11.1363636,8.33704469 11.1363636,7.89772727 L11.1363636,0.738636364 Z" fill-opacity="0.870216259" fill="#FFFFFF" mask="url(#mask-7)"></path>
            </g>
            <circle id="椭圆形-copy" fill-rule="nonzero" cx="25" cy="25" r="25"></circle>
        </g>
        <g id="待评价" opacity="0.699999988" transform="translate(117.000000, 13.000000)">
            <path d="M30.3400482,36.7045455 L25.0565312,41.9880624 L19.7730142,36.7045455 L13.5227273,36.7045455 C10.8868228,36.7045455 8.75,34.5677227 8.75,31.9318182 L8.75,16.0227273 C8.75,13.3868228 10.8868228,11.25 13.5227273,11.25 L36.4772727,11.25 C39.1131772,11.25 41.25,13.3868228 41.25,16.0227273 L41.25,31.9318182 C41.25,34.5677227 39.1131772,36.7045455 36.4772727,36.7045455 L30.3400482,36.7045455 Z" id="Combined-Shape" fill="url(#linearGradient-3)"></path>
            <rect id="Rectangle-6" fill-opacity="0.873641304" fill="#FFFFFF" x="15" y="18.75" width="20.454545" height="3.18181818" rx="1.59090909"></rect>
            <rect id="Rectangle-6-Copy" fill-opacity="0.873641304" fill="#FFFFFF" x="15" y="25" width="20.454545" height="3.18181818" rx="1.59090909"></rect>
            <circle id="椭圆形-copy-2" fill-rule="nonzero" cx="25" cy="25" r="25"></circle>
        </g>
        <g id="退换货" opacity="0.699999988" transform="translate(167.000000, 13.000000)">
            <circle id="椭圆形-copy-3" fill-rule="nonzero" cx="25" cy="25" r="25"></circle>
            <g id="退换" transform="translate(26.000000, 25.000000) rotate(-270.000000) translate(-26.000000, -25.000000) translate(8.500000, 6.500000)">
                <circle id="Oval" stroke="#333333" stroke-width="1.59090909" fill="#D8D8D8" opacity="0" cx="17.5" cy="19.5" r="16.7045455"></circle>
                <path d="M2.52899324,12.0745882 L2.52899324,10.0695041 C2.52899324,6.76487657 5.20792318,3.53045733 8.51255074,3.53045733 L14.0481197,3.53045733 L12.7969276,2.20914758 C12.3803311,1.78530707 12.3862035,1.10399826 12.810044,0.687401761 C13.2338845,0.270805264 13.9151933,0.276677698 14.3317898,0.700518209 L17.4523937,3.96734523 C17.8639212,4.38602861 17.8639212,5.05729123 17.4523937,5.47597461 L14.3449063,8.64501233 C13.9283098,9.06885284 13.247001,9.07472528 12.8231604,8.65812878 C12.3993199,8.24153228 12.3934475,7.56022347 12.810044,7.13638296 L13.998114,5.92388033 L8.51255074,5.92388033 C6.93470006,5.92388033 5.59458815,6.941761 5.11303506,8.35670229 C5.88307472,7.68195942 7.07076012,7.25316615 8.5125641,7.25316615 L11.3367631,7.25316615 C11.026438,8.12932321 11.2265652,9.14463613 11.9331804,9.8391743 C12.9053397,10.7947181 14.4680518,10.7812485 15.4235956,9.80908922 L18.6612435,6.51514327 C19.2050629,5.96186759 19.4355714,5.21629406 19.3527689,4.5 L26.090287,4.5 C28.3190838,4.5 29.1272994,4.73206403 29.9421143,5.16783176 C30.7569291,5.60359949 31.3964005,6.24307093 31.8321682,7.05788574 C32.267936,7.87270056 32.5,8.68091615 32.5,10.909713 L32.5,28.090287 C32.5,30.3190838 32.267936,31.1272994 31.8321682,31.9421143 C31.3964005,32.7569291 30.7569291,33.3964005 29.9421143,33.8321682 C29.1272994,34.267936 28.3190838,34.5 26.090287,34.5 L8.909713,34.5 C6.68091615,34.5 5.87270056,34.267936 5.05788574,33.8321682 C4.24307093,33.3964005 3.60359949,32.7569291 3.16783176,31.9421143 C2.73206403,31.1272994 2.5,30.3190838 2.5,28.090287 L2.5,12.1054726 L2.52899324,12.0745882 Z" id="合并形状" fill="url(#linearGradient-8)" fill-rule="nonzero"></path>
                <g id="分组-23" transform="translate(19.000000, 19.500000) rotate(-90.000000) translate(-19.000000, -19.500000) translate(11.500000, 9.500000)" fill="#FFFFFF" fill-opacity="0.87" fill-rule="nonzero">
                    <path d="M6.38654528,8.9642039 L1.8542584,8.9642039 C1.17626182,8.9642039 0.626637002,8.41457908 0.626637002,7.7365825 C0.626637002,7.05858593 1.17626182,6.50896111 1.8542584,6.50896111 L5.67344428,6.50896111 L1.63101812,2.46653495 C1.15160215,1.98711897 1.15160215,1.2098321 1.63101812,0.730416123 C2.1104341,0.251000148 2.88772097,0.251000148 3.36713695,0.730416123 L7.61416667,4.97744585 L11.8611964,0.730416123 C12.3406124,0.251000148 13.1178992,0.251000148 13.5973152,0.730416123 C14.0767312,1.2098321 14.0767312,1.98711897 13.5973152,2.46653495 L9.55488906,6.50896111 L13.3740749,6.50896111 C14.0520715,6.50896111 14.6016963,7.05858593 14.6016963,7.7365825 C14.6016963,8.41457908 14.0520715,8.9642039 13.3740749,8.9642039 L8.84178807,8.9642039 L8.84178807,10.6010324 L13.3740749,10.6010324 C14.0520715,10.6010324 14.6016963,11.1506572 14.6016963,11.8286538 C14.6016963,12.5066504 14.0520715,13.0562752 13.3740749,13.0562752 L8.84178807,13.0562752 L8.84178807,17.9481605 C8.84178807,18.626157 8.29216325,19.1757818 7.61416667,19.1757818 C6.9361701,19.1757818 6.38654528,18.626157 6.38654528,17.9481605 L6.38654528,13.0562752 L1.8542584,13.0562752 C1.17626182,13.0562752 0.626637002,12.5066504 0.626637002,11.8286538 C0.626637002,11.1506572 1.17626182,10.6010324 1.8542584,10.6010324 L6.38654528,10.6010324 L6.38654528,8.9642039 Z" id="合并形状"></path>
                </g>
            </g>
        </g>
        <g id="小程序" opacity="0.699999988" transform="translate(217.000000, 13.000000)">
            <circle id="椭圆形-copy-4" fill-rule="nonzero" cx="25" cy="25" r="25"></circle>
            <rect id="Rectangle" fill="url(#linearGradient-9)" transform="translate(25.000000, 25.000000) rotate(-90.000000) translate(-25.000000, -25.000000) " x="10" y="10" width="30" height="30" rx="4.77272727"></rect>
            <g id="分组" opacity="0.870000005" transform="translate(16.000000, 17.000000)" fill="#FFFFFF" stroke="#FFFFFF">
                <path d="M18,4.57834319 C18,5.36641265 17.7726859,6.1357 17.3558047,6.82999639 C16.7305753,7.8431762 15.7264891,8.59386469 14.5137773,8.95031232 C14.1916334,9.04408539 13.9453071,9.08164959 13.717993,9.08164959 C13.187501,9.08164959 12.7706197,8.66885567 12.7706197,8.14346076 C12.7706197,7.61806585 13.187501,7.20522611 13.717993,7.20522611 C13.7557862,7.20522611 13.83165,7.20522611 13.9263874,7.16784515 C14.7410914,6.94255156 15.3852867,6.47354877 15.7452238,5.85419754 C15.9917352,5.46018572 16.1053922,5.02874712 16.1053922,4.57834319 C16.1053922,3.09593153 14.7221254,1.87642348 13.035912,1.87642348 C12.4484295,1.87642348 11.8799593,2.02658866 11.368387,2.30786207 C10.4779116,2.81465812 9.94741955,3.65889064 9.94741955,4.57834319 L9.94741955,12.4404847 C9.94741955,14.0352225 9.05694417,15.4988062 7.57903258,16.3244857 C6.78324827,16.7748897 5.89258785,17 4.9831465,17 C2.23576396,17 0,14.954675 0,12.4217026 C0,11.6335874 0.227360338,10.8641626 0.644241593,10.1700036 C1.2694247,9.15664056 2.27374216,8.40613531 3.48640772,8.04968768 C3.82737884,7.95591461 4.05469292,7.91835041 4.28219203,7.91835041 C4.81273033,7.91835041 5.22942655,8.33119014 5.22942655,8.85653924 C5.22942655,9.38193415 4.81273033,9.79477389 4.28219203,9.79477389 C4.24421384,9.79477389 4.16834996,9.79477389 4.07361263,9.83215485 C3.25890861,10.0760473 2.61471327,10.5452791 2.25477619,11.1456192 C2.00844988,11.5396769 1.8948391,11.9712987 1.8948391,12.4217026 C1.8948391,13.9038852 3.27787458,15.1235765 4.9831465,15.1235765 C5.5705827,15.1235765 6.13900668,14.9734571 6.65053274,14.6919547 C7.54100813,14.1853877 8.07159268,13.3411094 8.07159268,12.4217026 L8.07159268,4.57834319 C8.07159268,2.98337636 8.96206806,1.51979262 10.4399796,0.694342195 C11.216798,0.225110348 12.1074584,0 13.0168998,0 C15.764236,0 18,2.04518752 18,4.57834319 Z" id="Fill-1"></path>
            </g>
        </g>
        <g id="分组-8" transform="translate(152.000000, 143.000000)">
            <rect id="矩形" fill-rule="nonzero" x="0" y="0" width="20" height="20"></rect>
            <rect id="矩形" stroke="#979797" stroke-width="1.5" fill-rule="nonzero" x="2.75" y="2.75" width="14.5" height="14.5" rx="3"></rect>
            <path d="M12.4513925,13.8996049 L9.03213375,8.61442804 C8.17400665,7.28801377 8.17695279,5.58078729 9.03965274,4.25734264 L12.4880283,-1.03271707" id="路径" stroke="#979797" stroke-width="1.5" transform="translate(10.054584, 6.433444) scale(1, -1) rotate(-270.000000) translate(-10.054584, -6.433444) "></path>
        </g>
        <g id="分组-8-copy-3" transform="translate(172.000000, 143.000000)">
            <rect id="矩形" fill-rule="nonzero" x="0" y="0" width="20" height="20"></rect>
            <path d="M3.25,6.48847961 L16.75,6.48847961 L16.75,4 C16.75,2.75735931 15.7426407,1.75 14.5,1.75 L5.5,1.75 C4.25735931,1.75 3.25,2.75735931 3.25,4 L3.25,6.48847961 Z" id="路径" stroke="#979797" stroke-width="1.5"></path>
            <path d="M3.46423835,6.79347006 C3.316588,6.73440992 3.15902429,6.70406592 3,6.70406592 C2.30964406,6.70406592 1.75,7.26370999 1.75,7.95406592 L1.75,15 C1.75,16.2426407 2.75735931,17.25 4,17.25 L16,17.25 C17.2426407,17.25 18.25,16.2426407 18.25,15 L18.25,7.95406592 C18.25,7.79504164 18.219656,7.63747792 18.1605959,7.48982758 C17.9042041,6.84884818 17.1767411,6.5370783 16.5357617,6.79347006 L11.392715,8.85068871 C10.4986737,9.20830525 9.50132633,9.20830525 8.60728496,8.85068871 L3.46423835,6.79347006 Z" id="矩形" stroke="#979797" stroke-width="1.5" fill-rule="nonzero"></path>
            <path d="M8.07263907,5.1192398 L11.9273609,5.1192398" id="路径-2" stroke="#979797" stroke-width="1.5" stroke-linecap="round"></path>
        </g>
        <g id="首页为空" transform="translate(25.000000, 134.000000)">
            <rect id="矩形" fill="#D8D8D8" opacity="0" x="0" y="0" width="120" height="120"></rect>
            <path d="M53.4399399,10.8551829 C54.7873874,10.8551829 55.8798799,9.76821951 55.8798799,8.42759146 C55.8798799,7.08696341 54.7873874,6 53.4399399,6 C52.0924925,6 51,7.08696341 51,8.42759146 C51,9.76821951 52.0924925,10.8551829 53.4399399,10.8551829 Z" id="Stroke-1" stroke="#E5E5E5" stroke-width="2" opacity="0.5"></path>
            <path d="M105.43994,52.8551829 C106.787387,52.8551829 107.87988,51.7682195 107.87988,50.4275915 C107.87988,49.0869634 106.787387,48 105.43994,48 C104.092492,48 103,49.0869634 103,50.4275915 C103,51.7682195 104.092492,52.8551829 105.43994,52.8551829 Z" id="Stroke-3" stroke="#E5E5E5" stroke-width="2" opacity="0.5"></path>
            <g id="分组" opacity="0.5" transform="translate(96.000000, 15.000000)" stroke="#E5E5E5" stroke-linecap="round" stroke-width="2">
                <path d="M3.19072072,0.0317006098 L3.19072072,5.85792012" id="Stroke-5"></path>
                <path d="M6.11864865,2.94481037 L0.262792793,2.94481037" id="Stroke-7"></path>
            </g>
            <g id="分组" opacity="0.5" transform="translate(12.000000, 23.000000)" stroke="#E5E5E5" stroke-linecap="round" stroke-width="2">
                <path d="M4.83243243,12.6758415 L0,12" id="Stroke-9"></path>
                <path d="M7.79249249,8.05562805 L4,5" id="Stroke-11"></path>
                <path d="M12.5945946,4.81903049 L12,0" id="Stroke-13"></path>
            </g>
            <path d="M77.5297297,27 L40.9993994,27 C39.8951952,27 39,27.8903659 39,28.9889817 L39,88.4687073 C39,89.5670244 39.8951952,90.457689 40.9993994,90.457689 L87.3615616,90.457689 C88.4657658,90.457689 89.3603604,89.5670244 89.3603604,88.4687073 L89.3603604,38.7707561 L77.5297297,27 Z" id="Fill-15" fill="#FFFFFF"></path>
            <path d="M77.5297297,27 L40.9993994,27 C39.8951952,27 39,27.8903659 39,28.9889817 L39,88.4687073 C39,89.5670244 39.8951952,90.457689 40.9993994,90.457689 L87.3615616,90.457689 C88.4657658,90.457689 89.3603604,89.5670244 89.3603604,88.4687073 L89.3603604,38.7707561 L77.5297297,27 Z" id="Stroke-17" stroke="#E5E5E5" stroke-width="2"></path>
            <path d="M89.4075075,38.3500732 L79.2072072,38.3500732 C78.5402402,38.3500732 78,37.8122683 78,37.1486768 L78,27" id="Stroke-19" stroke="#E5E5E5" stroke-width="2"></path>
            <path d="M71.5294294,33 L34.9990991,33 C33.8948949,33 33,33.8903659 33,34.9889817 L33,94.4687073 C33,95.5673232 33.8948949,96.457689 34.9990991,96.457689 L81.3612613,96.457689 C82.4654655,96.457689 83.3600601,95.5673232 83.3600601,94.4687073 L83.3600601,44.7710549 L71.5294294,33 Z" id="Fill-21" fill="#FFFFFF"></path>
            <path d="M71.5294294,33 L34.9990991,33 C33.8948949,33 33,33.8903659 33,34.9889817 L33,94.4687073 C33,95.5673232 33.8948949,96.457689 34.9990991,96.457689 L81.3612613,96.457689 C82.4654655,96.457689 83.3600601,95.5673232 83.3600601,94.4687073 L83.3600601,44.7710549 L71.5294294,33 Z" id="Stroke-23" stroke="#E5E5E5" stroke-width="2"></path>
            <path d="M82.4075075,44.3500732 L72.2072072,44.3500732 C71.5402402,44.3500732 71,43.8122683 71,43.1486768 L71,33" id="Stroke-25" stroke="#E5E5E5" stroke-width="2"></path>
            <path d="M65.5294294,39 L28.9990991,39 C27.8951952,39 27,39.8903659 27,40.9889817 L27,100.468707 C27,101.567323 27.8951952,102.457689 28.9990991,102.457689 L75.3612613,102.457689 C76.4654655,102.457689 77.3603604,101.567323 77.3603604,100.468707 L77.3603604,50.7707561 L65.5294294,39 Z" id="Fill-27" fill="#FFFFFF"></path>
            <path d="M76.4078078,50.3500732 L66.2072072,50.3500732 C65.5405405,50.3500732 65,49.8122683 65,49.1486768 L65,39" id="Fill-29" fill="#FFFFFF"></path>
            <path d="M65.5294294,39 L28.9990991,39 C27.8951952,39 27,39.8903659 27,40.9889817 L27,100.468707 C27,101.567323 27.8951952,102.457689 28.9990991,102.457689 L75.3612613,102.457689 C76.4654655,102.457689 77.3603604,101.567323 77.3603604,100.468707 L77.3603604,50.7707561 L65.5294294,39 Z" id="Stroke-31" stroke="#E5E5E5" stroke-width="2"></path>
            <path d="M76.4078078,50.3500732 L66.2072072,50.3500732 C65.5405405,50.3500732 65,49.8122683 65,49.1486768 L65,39" id="Stroke-33" stroke="#E5E5E5" stroke-width="2"></path>
            <path d="M37,54.1493902 L51.8336336,54.1493902" id="Stroke-35" stroke="#E5E5E5" stroke-width="2" stroke-linecap="round"></path>
            <path d="M37,61.1493902 L46.8474474,61.1493902" id="Stroke-37" stroke="#E5E5E5" stroke-width="2" stroke-linecap="round"></path>
            <path d="M37,90.1493902 L51.8336336,90.1493902" id="Stroke-39" stroke="#E5E5E5" stroke-width="2" stroke-linecap="round"></path>
            <path d="M37,82.1493902 L46.8474474,82.1493902" id="Stroke-41" stroke="#E5E5E5" stroke-width="2" stroke-linecap="round"></path>
            <path d="M76.9069069,64.0810427 C82.375976,69.5221341 82.375976,78.3445244 76.9069069,83.7859146 C71.4378378,89.2273049 62.5708709,89.2273049 57.1018018,83.7859146 C51.6327327,78.3445244 51.6327327,69.5221341 57.1018018,64.0810427 C62.5708709,58.6396524 71.4378378,58.6396524 76.9069069,64.0810427" id="Fill-51" fill="#FFFFFF"></path>
            <rect id="矩形-copy-3" stroke="#E5E5E5" stroke-width="2" fill="#FFFFFF" transform="translate(79.181981, 85.181981) rotate(-45.000000) translate(-79.181981, -85.181981) " x="77.6819805" y="82.1819805" width="3" height="6"></rect>
            <path d="M76.9069069,64.0810427 C82.375976,69.5221341 82.375976,78.3445244 76.9069069,83.7859146 C71.4378378,89.2273049 62.5708709,89.2273049 57.1018018,83.7859146 C51.6327327,78.3445244 51.6327327,69.5221341 57.1018018,64.0810427 C62.5708709,58.6396524 71.4378378,58.6396524 76.9069069,64.0810427 Z" id="Stroke-53" stroke="#E5E5E5" stroke-width="2" fill="#FFFFFF"></path>
            <rect id="矩形" stroke="#E5E5E5" stroke-width="2" fill="#FFFFFF" transform="translate(86.545942, 92.545942) rotate(-45.000000) translate(-86.545942, -92.545942) " x="83.0459415" y="82.5459415" width="7" height="20" rx="3.5"></rect>
        </g>
        <g id="分组-2" opacity="0.699999988" transform="translate(167.000000, 63.000000)">
            <circle id="椭圆形-copy-3" fill-rule="nonzero" cx="25" cy="25" r="25"></circle>
            <g id="退换" transform="translate(26.000000, 25.000000) rotate(-270.000000) translate(-26.000000, -25.000000) translate(8.500000, 6.500000)">
                <circle id="Oval" stroke="#333333" stroke-width="1.59090909" fill="#D8D8D8" opacity="0" cx="17.5" cy="19.5" r="16.7045455"></circle>
                <path d="M2.52899324,12.0745882 L2.52899324,10.0695041 C2.52899324,6.76487657 5.20792318,3.53045733 8.51255074,3.53045733 L14.0481197,3.53045733 L12.7969276,2.20914758 C12.3803311,1.78530707 12.3862035,1.10399826 12.810044,0.687401761 C13.2338845,0.270805264 13.9151933,0.276677698 14.3317898,0.700518209 L17.4523937,3.96734523 C17.8639212,4.38602861 17.8639212,5.05729123 17.4523937,5.47597461 L14.3449063,8.64501233 C13.9283098,9.06885284 13.247001,9.07472528 12.8231604,8.65812878 C12.3993199,8.24153228 12.3934475,7.56022347 12.810044,7.13638296 L13.998114,5.92388033 L8.51255074,5.92388033 C6.93470006,5.92388033 5.59458815,6.941761 5.11303506,8.35670229 C5.88307472,7.68195942 7.07076012,7.25316615 8.5125641,7.25316615 L11.3367631,7.25316615 C11.026438,8.12932321 11.2265652,9.14463613 11.9331804,9.8391743 C12.9053397,10.7947181 14.4680518,10.7812485 15.4235956,9.80908922 L18.6612435,6.51514327 C19.2050629,5.96186759 19.4355714,5.21629406 19.3527689,4.5 L26.090287,4.5 C28.3190838,4.5 29.1272994,4.73206403 29.9421143,5.16783176 C30.7569291,5.60359949 31.3964005,6.24307093 31.8321682,7.05788574 C32.267936,7.87270056 32.5,8.68091615 32.5,10.909713 L32.5,28.090287 C32.5,30.3190838 32.267936,31.1272994 31.8321682,31.9421143 C31.3964005,32.7569291 30.7569291,33.3964005 29.9421143,33.8321682 C29.1272994,34.267936 28.3190838,34.5 26.090287,34.5 L8.909713,34.5 C6.68091615,34.5 5.87270056,34.267936 5.05788574,33.8321682 C4.24307093,33.3964005 3.60359949,32.7569291 3.16783176,31.9421143 C2.73206403,31.1272994 2.5,30.3190838 2.5,28.090287 L2.5,12.1054726 L2.52899324,12.0745882 Z" id="合并形状" fill="url(#linearGradient-10)"></path>
                <g id="分组-23" transform="translate(19.000000, 19.500000) rotate(-90.000000) translate(-19.000000, -19.500000) translate(11.500000, 9.500000)" fill="#FFFFFF" fill-opacity="0.87" fill-rule="nonzero">
                    <path d="M6.38654528,8.9642039 L1.8542584,8.9642039 C1.17626182,8.9642039 0.626637002,8.41457908 0.626637002,7.7365825 C0.626637002,7.05858593 1.17626182,6.50896111 1.8542584,6.50896111 L5.67344428,6.50896111 L1.63101812,2.46653495 C1.15160215,1.98711897 1.15160215,1.2098321 1.63101812,0.730416123 C2.1104341,0.251000148 2.88772097,0.251000148 3.36713695,0.730416123 L7.61416667,4.97744585 L11.8611964,0.730416123 C12.3406124,0.251000148 13.1178992,0.251000148 13.5973152,0.730416123 C14.0767312,1.2098321 14.0767312,1.98711897 13.5973152,2.46653495 L9.55488906,6.50896111 L13.3740749,6.50896111 C14.0520715,6.50896111 14.6016963,7.05858593 14.6016963,7.7365825 C14.6016963,8.41457908 14.0520715,8.9642039 13.3740749,8.9642039 L8.84178807,8.9642039 L8.84178807,10.6010324 L13.3740749,10.6010324 C14.0520715,10.6010324 14.6016963,11.1506572 14.6016963,11.8286538 C14.6016963,12.5066504 14.0520715,13.0562752 13.3740749,13.0562752 L8.84178807,13.0562752 L8.84178807,17.9481605 C8.84178807,18.626157 8.29216325,19.1757818 7.61416667,19.1757818 C6.9361701,19.1757818 6.38654528,18.626157 6.38654528,17.9481605 L6.38654528,13.0562752 L1.8542584,13.0562752 C1.17626182,13.0562752 0.626637002,12.5066504 0.626637002,11.8286538 C0.626637002,11.1506572 1.17626182,10.6010324 1.8542584,10.6010324 L6.38654528,10.6010324 L6.38654528,8.9642039 Z" id="合并形状"></path>
                </g>
            </g>
        </g>
        <g id="待收货" transform="translate(67.000000, 63.000000)">
            <circle id="椭圆形-copy" fill-rule="nonzero" cx="25" cy="25" r="25"></circle>
            <g id="Rectangle-3" transform="translate(7.500000, 12.250000)">
                <mask id="mask-12" fill="white">
                    <use xlink:href="#path-11"></use>
                </mask>
                <use id="Mask" fill="#CCCCCC" xlink:href="#path-11"></use>
                <path d="M11.4365944,7.18181818 C11.2707815,7.18181818 11.1363636,6.82568105 11.1363636,6.38636364 C11.1363636,6.23727977 11.1521766,6.09119644 11.1819992,5.96477357 L12.2196715,1.56591078 C12.3293988,1.10075861 12.5218287,0.818181818 12.7288618,0.818181818 L22.271098,0.818181818 C22.4781311,0.818181818 22.670561,1.10075861 22.7802883,1.56591078 L23.8179606,5.96477357 C23.9058412,6.33731399 23.8630964,6.82806998 23.7224874,7.06090774 C23.6747713,7.13992203 23.6196346,7.18181818 23.5633654,7.18181818" fill-opacity="0.869225543" fill="#FFFFFF" mask="url(#mask-12)"></path>
            </g>
            <g id="Rectangle-4" transform="translate(7.500000, 18.500000)">
                <mask id="mask-15" fill="white">
                    <use xlink:href="#path-14"></use>
                </mask>
                <use id="Mask" fill="url(#linearGradient-13)" xlink:href="#path-14"></use>
                <path d="M11.1363636,-0.261363636 L23.8636364,-0.261363636 L23.8636364,6.89772727 C23.8636364,7.33704469 23.5074992,7.69318182 23.0681818,7.69318182 L11.9318182,7.69318182 C11.4925008,7.69318182 11.1363636,7.33704469 11.1363636,6.89772727 L11.1363636,-0.261363636 Z" fill-opacity="0.870216259" fill="#FFFFFF" mask="url(#mask-15)"></path>
            </g>
        </g>
        <g id="待评价" transform="translate(117.000000, 63.000000)">
            <path d="M30.3400482,36.7045455 L25.0565312,41.9880624 L19.7730142,36.7045455 L13.5227273,36.7045455 C10.8868228,36.7045455 8.75,34.5677227 8.75,31.9318182 L8.75,16.0227273 C8.75,13.3868228 10.8868228,11.25 13.5227273,11.25 L36.4772727,11.25 C39.1131772,11.25 41.25,13.3868228 41.25,16.0227273 L41.25,31.9318182 C41.25,34.5677227 39.1131772,36.7045455 36.4772727,36.7045455 L30.3400482,36.7045455 Z" id="Combined-Shape" fill="url(#linearGradient-13)"></path>
            <rect id="Rectangle-6" fill-opacity="0.873641304" fill="#FFFFFF" x="15" y="18.75" width="20.454545" height="3.18181818" rx="1.59090909"></rect>
            <rect id="Rectangle-6-Copy" fill-opacity="0.873641304" fill="#FFFFFF" x="15" y="25" width="20.454545" height="3.18181818" rx="1.59090909"></rect>
            <circle id="椭圆形-copy-2" fill-rule="nonzero" cx="25" cy="25" r="25"></circle>
        </g>
        <g id="小程序-copy" opacity="0.699999988" transform="translate(217.000000, 63.000000)">
            <circle id="椭圆形-copy-4" fill-rule="nonzero" cx="25" cy="25" r="25"></circle>
            <rect id="Rectangle" fill="url(#linearGradient-16)" transform="translate(25.000000, 25.000000) rotate(-90.000000) translate(-25.000000, -25.000000) " x="10" y="10" width="30" height="30" rx="4.77272727"></rect>
            <g id="分组" transform="translate(16.000000, 17.000000)">
                <path d="M18,4.57834319 C18,5.36641265 17.7726859,6.1357 17.3558047,6.82999639 C16.7305753,7.8431762 15.7264891,8.59386469 14.5137773,8.95031232 C14.1916334,9.04408539 13.9453071,9.08164959 13.717993,9.08164959 C13.187501,9.08164959 12.7706197,8.66885567 12.7706197,8.14346076 C12.7706197,7.61806585 13.187501,7.20522611 13.717993,7.20522611 C13.7557862,7.20522611 13.83165,7.20522611 13.9263874,7.16784515 C14.7410914,6.94255156 15.3852867,6.47354877 15.7452238,5.85419754 C15.9917352,5.46018572 16.1053922,5.02874712 16.1053922,4.57834319 C16.1053922,3.09593153 14.7221254,1.87642348 13.035912,1.87642348 C12.4484295,1.87642348 11.8799593,2.02658866 11.368387,2.30786207 C10.4779116,2.81465812 9.94741955,3.65889064 9.94741955,4.57834319 L9.94741955,12.4404847 C9.94741955,14.0352225 9.05694417,15.4988062 7.57903258,16.3244857 C6.78324827,16.7748897 5.89258785,17 4.9831465,17 C2.23576396,17 0,14.954675 0,12.4217026 C0,11.6335874 0.227360338,10.8641626 0.644241593,10.1700036 C1.2694247,9.15664056 2.27374216,8.40613531 3.48640772,8.04968768 C3.82737884,7.95591461 4.05469292,7.91835041 4.28219203,7.91835041 C4.81273033,7.91835041 5.22942655,8.33119014 5.22942655,8.85653924 C5.22942655,9.38193415 4.81273033,9.79477389 4.28219203,9.79477389 C4.24421384,9.79477389 4.16834996,9.79477389 4.07361263,9.83215485 C3.25890861,10.0760473 2.61471327,10.5452791 2.25477619,11.1456192 C2.00844988,11.5396769 1.8948391,11.9712987 1.8948391,12.4217026 C1.8948391,13.9038852 3.27787458,15.1235765 4.9831465,15.1235765 C5.5705827,15.1235765 6.13900668,14.9734571 6.65053274,14.6919547 C7.54100813,14.1853877 8.07159268,13.3411094 8.07159268,12.4217026 L8.07159268,4.57834319 C8.07159268,2.98337636 8.96206806,1.51979262 10.4399796,0.694342195 C11.216798,0.225110348 12.1074584,0 13.0168998,0 C15.764236,0 18,2.04518752 18,4.57834319 Z" id="Fill-1" stroke="#FFFFFF" fill="#FFFFFF"></path>
                <path d="" id="路径-2" stroke="#979797"></path>
            </g>
        </g>
        <g id="待付款" transform="translate(17.000000, 63.000000)">
            <circle id="椭圆形" fill-rule="nonzero" cx="25" cy="25" r="25"></circle>
            <g id="Rectangle" transform="translate(9.090909, 6.250000)">
                <mask id="mask-18" fill="white">
                    <use xlink:href="#path-17"></use>
                </mask>
                <g id="Mask"></g>
                <path d="M1.59058825,5.19571372 L27.0497269,5.17997846 C29.6856309,5.17834931 31.8237739,7.313851 31.8254031,9.94975499 C31.8254043,9.95171882 31.8254043,9.95368265 31.8254031,9.95564648 L31.8155519,25.9387569 C31.8139287,28.5723604 29.6793789,30.7069139 27.0457754,30.7085416 L1.58663674,30.7242769 C-1.04926724,30.725906 -3.1874103,28.5904043 -3.18903945,25.9545003 C-3.18904066,25.9525365 -3.18904067,25.9505727 -3.18903946,25.9486088 L-3.17918829,9.96549842 C-3.17756507,7.33189491 -1.04301526,5.19734145 1.59058825,5.19571372 Z" fill="#CCCCCC" mask="url(#mask-18)" transform="translate(14.318182, 17.952128) rotate(-12.000000) translate(-14.318182, -17.952128) "></path>
            </g>
            <rect id="Rectangle" fill="url(#linearGradient-13)" x="7.5" y="13.4308511" width="35" height="25.5319149" rx="4.77272727"></rect>
            <path d="M28.491779,21.4095745 L42.454545,21.4095745 L42.454545,30.9840426 L28.491779,30.9840426 C25.8478627,30.9840426 23.704545,28.8407249 23.704545,26.1968085 L23.704545,26.1968085 C23.704545,23.5528922 25.8478627,21.4095745 28.491779,21.4095745 Z" id="Rectangle-2" fill-opacity="0.866649683" fill="#FFFFFF"></path>
            <ellipse id="Oval-9" fill="#CCCCCC" cx="28.9772727" cy="26.1968085" rx="1.59090909" ry="1.59574468"></ellipse>
        </g>
    </g>
</svg>